<?xml version="1.0" encoding="utf-8"?>
<!-- Generator: Adobe Illustrator 22.0.1, SVG Export Plug-In . SVG Version: 6.00 Build 0)  -->
<svg version="1.1" id="Calque_3" xmlns="http://www.w3.org/2000/svg" xmlns:xlink="http://www.w3.org/1999/xlink" x="0px" y="0px"
	 viewBox="0 0 79 79" style="enable-background:new 0 0 79 79;" xml:space="preserve">
<style type="text/css">
	.st0{fill:#4AB4E6;}
	.st1{fill:#E6E5E5;}
	.st2{fill:#FFFFFF;}
	.st3{fill:#FF7900;}
</style>
<circle class="st0" cx="39.5" cy="39.4" r="38.8"/>
<g>
	<g>
		<polygon class="st1" points="8.4,33.5 29.1,20.4 29.1,29.4 27.7,29.4 27.3,25.7 8.4,43.7 		"/>
		<polygon class="st1" points="70,33.5 49.3,20.4 49.3,29.4 50.6,29.4 51,25.7 70,43.7 		"/>
		<path class="st2" d="M70,33.5v14.8h-4c-0.6,0-1.3,0.2-1.8,0.7c-0.5,0.5-0.7,1.1-0.7,1.8v0.1c0,0.3-0.1,0.5-0.3,0.8
			c-0.2,0.2-0.5,0.3-0.8,0.3H45.8c-0.6,0-1.2-0.2-1.8-0.5c-0.6-0.3-1-0.8-1.3-1.3l-2-3.6c-0.3-0.6-0.9-0.9-1.6-0.9
			c-0.7,0-1.3,0.4-1.6,0.9l-2,3.6c-0.3,0.5-0.7,1-1.3,1.3c-0.6,0.3-1.2,0.5-1.8,0.5H15.9c-0.3,0-0.5-0.1-0.8-0.3
			c-0.2-0.2-0.3-0.5-0.3-0.8v-0.1c0-0.6-0.2-1.3-0.7-1.8c-0.5-0.5-1.1-0.7-1.8-0.7h-4V33.5H70z"/>
		<g>
			<path class="st0" d="M44.4,44.9c0,0.9,0.3,1.8,1,2.5c0.7,0.7,1.6,1,2.5,1h10.8c0.9,0,1.8-0.3,2.5-1c0.7-0.7,1-1.6,1-2.5v-8H44.4
				V44.9z"/>
			<path class="st3" d="M16.1,44.9c0,0.9,0.3,1.8,1,2.5c0.7,0.7,1.6,1,2.5,1h10.8c0.9,0,1.8-0.3,2.5-1c0.7-0.7,1-1.6,1-2.5v-8H16.1
				V44.9z"/>
		</g>
		<g>
			<defs>
				<path id="SVGID_1_" d="M44.4,44.9c0,0.9,0.3,1.8,1,2.5c0.7,0.7,1.6,1,2.5,1h10.8c0.9,0,1.8-0.3,2.5-1c0.7-0.7,1-1.6,1-2.5v-8
					H44.4V44.9z"/>
			</defs>
			<use xlink:href="#SVGID_1_"  style="overflow:visible;fill:#085FBC;"/>
			<clipPath id="SVGID_2_">
				<use xlink:href="#SVGID_1_"  style="overflow:visible;"/>
			</clipPath>
		</g>
		<g>
			<defs>
				<path id="SVGID_3_" d="M16.1,44.9c0,0.9,0.3,1.8,1,2.5c0.7,0.7,1.6,1,2.5,1h10.8c0.9,0,1.8-0.3,2.5-1c0.7-0.7,1-1.6,1-2.5v-8
					H16.1V44.9z"/>
			</defs>
			<clipPath id="SVGID_4_">
				<use xlink:href="#SVGID_3_"  style="overflow:visible;"/>
			</clipPath>
		</g>
	</g>
</g>
</svg>
