<svg xmlns="http://www.w3.org/2000/svg" width="40" height="40" viewBox="0 0 40 40">
  <g fill="#FFF">
    <path d="M19.9,39.9 C8.9,39.9 0,31 0,20 C0,9 8.9,0.1 19.9,0.1 C30.9,0.1 39.9,9 39.9,20 C39.9,31 30.9,39.9 19.9,39.9 Z M19.9,2.2 C10.1,2.2 2.1,10.2 2.1,20 C2.1,29.8 10.1,37.8 19.9,37.8 C29.7,37.8 37.7,29.8 37.7,20 C37.7,10.2 29.8,2.2 19.9,2.2 Z"/>
    <g transform="translate(11 10)">
      <path d="M4.6 16.7L4.6 5.5.9 5.5.9 16.7 4.6 16.7 4.6 16.7zM2.7 3.9C4 3.9 4.8 3 4.8 2 4.8.9 4 .1 2.7.1 1.4.1.6.9.6 2 .6 3.1 1.4 3.9 2.7 3.9L2.7 3.9 2.7 3.9zM6.7 16.7L10.4 16.7 10.4 10.4C10.4 10.1 10.4 9.7 10.5 9.5 10.8 8.8 11.4 8.1 12.4 8.1 13.8 8.1 14.3 9.1 14.3 10.6L14.3 16.6 18 16.6 18 10.2C18 6.8 16.2 5.1 13.7 5.1 11.7 5.1 10.8 6.2 10.3 7L10.3 7 10.3 5.4 6.6 5.4C6.7 6.5 6.7 16.7 6.7 16.7L6.7 16.7z"/>
    </g>
  </g>
</svg>
